<?xml version="1.0" encoding="utf-8"?>
<!-- Generator: Adobe Illustrator 24.2.3, SVG Export Plug-In . SVG Version: 6.00 Build 0)  -->
<svg version="1.1" id="Layer_1" xmlns="http://www.w3.org/2000/svg" xmlns:xlink="http://www.w3.org/1999/xlink" x="0px" y="0px"
	 viewBox="0 0 252 79" style="enable-background:new 0 0 252 79;" xml:space="preserve">
<style type="text/css">
	.st0{fill-rule:evenodd;clip-rule:evenodd;fill:#F48120;}
	.st1{fill-rule:evenodd;clip-rule:evenodd;fill:#EF4E23;}
	.st2{fill-rule:evenodd;clip-rule:evenodd;fill:#FFFFFF;}
	.st3{fill:#FBB016;}
	.st4{fill-rule:evenodd;clip-rule:evenodd;fill:#2E3191;}
	.st5{fill:#2E3191;}
	.st6{fill:#F48120;}
</style>
<polygon class="st0" points="1.5,33.3 23.5,61.5 45.7,33.3 23.5,5.9 "/>
<path class="st1" d="M23,33.2c0,0.2,0,0.3,0.1,0.3c0.1,0,0.3,0.1,0.6,0.1c1.1,0,2-0.1,2.7-0.2c0.7-0.2,1.3-0.4,1.8-0.8
	c0.4-0.4,0.8-0.8,0.9-1.4c0.2-0.6,0.3-1.3,0.3-2.2c0-1.6-0.3-2.7-1-3.4c-0.6-0.7-1.7-1-3.3-1c-0.9,0-1.4,0.1-1.7,0.3
	c-0.3,0.2-0.4,0.6-0.4,1.3V33.2z M23,39.9c0,0.7,0.1,1.3,0.2,1.7c0.2,0.4,0.4,0.7,0.7,1c0.3,0.2,0.7,0.4,1.2,0.5
	c0.5,0.1,1,0.2,1.7,0.2c0.2,0,0.3,0.1,0.3,0.2c0.1,0.1,0.1,0.2,0.1,0.4s0,0.2-0.1,0.3c-0.1,0.1-0.2,0.1-0.4,0.1
	c-1.2,0-2.2,0-3.1-0.1c-0.9-0.1-1.7-0.1-2.5-0.1c-0.8,0-2-2-2-2.4c0.1-0.4,0.1-0.9,0.1-1.5V28.7c0-0.5,0-0.9,0-1.4
	c0-0.5-0.2-1.2-0.2-1.2s0.3-2.5,1.1-2.5c1.3,0,2.4-0.1,3.3-0.1c0.9-0.1,1.7-0.1,2.5-0.1c0.9,0,1.8,0.1,2.6,0.3
	c0.9,0.2,1.6,0.5,2.3,0.9c0.7,0.4,1.2,1,1.6,1.7c0.4,0.7,0.6,1.5,0.6,2.5c0,1.2-0.2,2.1-0.7,2.9c-0.5,0.8-1.2,1.4-2,1.8
	c-0.8,0.5-1.8,0.8-3,1c-1.1,0.2-2.4,0.3-3.7,0.4c-0.2,0-0.4,0-0.5,0.1C23.1,35,23,35.2,23,35.4V39.9z"/>
<path class="st2" d="M21.4,33c0,0.2,0,0.3,0.1,0.3c0.1,0,0.3,0.1,0.6,0.1c1.1,0,2-0.1,2.7-0.3c0.7-0.2,1.3-0.4,1.8-0.8
	c0.4-0.4,0.8-0.9,1-1.5c0.2-0.6,0.3-1.4,0.3-2.3c0-1.7-0.3-3-1-3.7c-0.6-0.7-1.8-1.1-3.3-1.1c-0.9,0-1.4,0.1-1.7,0.3
	c-0.3,0.2-0.4,0.7-0.4,1.4V33z M21.4,40.3c0,0.8,0.1,1.4,0.2,1.8c0.2,0.5,0.4,0.8,0.7,1.1c0.3,0.3,0.7,0.4,1.2,0.6
	c0.5,0.1,1,0.2,1.7,0.2c0.2,0,0.3,0.1,0.3,0.2c0.1,0.1,0.1,0.2,0.1,0.4c0,0.1,0,0.3-0.1,0.4C25.5,45,25.4,45,25.2,45
	c-1.2,0-2.2,0-3.1-0.1c-0.9-0.1-1.7-0.1-2.5-0.1c-0.9,0-1.7,0-2.5,0.1C16.3,45,15.5,45,14.7,45c-0.1,0-0.2-0.1-0.3-0.2
	c-0.1-0.1-0.1-0.2-0.1-0.4c0-0.1,0-0.3,0.1-0.4c0.1-0.1,0.2-0.2,0.3-0.2c0.6-0.1,1.1-0.2,1.5-0.3c0.4-0.1,0.7-0.3,0.9-0.5
	c0.2-0.2,0.4-0.6,0.5-1c0.1-0.4,0.1-0.9,0.1-1.6V28.1c0-0.5,0-1,0-1.5c0-0.5-0.1-0.9-0.2-1.3c-0.1-0.4-0.3-0.8-0.5-1
	c-0.2-0.3-0.6-0.5-1-0.6c-0.2-0.1-0.5-0.1-0.8-0.2c-0.3-0.1-0.5-0.1-0.8-0.1c-0.1,0-0.2-0.1-0.3-0.2c-0.1-0.1-0.1-0.2-0.1-0.4
	c0-0.1,0-0.3,0.1-0.4c0.1-0.1,0.2-0.2,0.3-0.2c0.8,0,1.4,0,2,0.1c0.6,0.1,1.3,0.1,2.1,0.1c1.3,0,2.4-0.1,3.3-0.1
	c0.9-0.1,1.7-0.1,2.5-0.1c0.9,0,1.8,0.1,2.6,0.3c0.9,0.2,1.6,0.5,2.3,1c0.7,0.5,1.2,1.1,1.6,1.8c0.4,0.7,0.6,1.6,0.6,2.7
	c0,1.2-0.2,2.3-0.7,3.1c-0.5,0.8-1.2,1.5-2,2c-0.9,0.5-1.9,0.9-3,1.1c-1.2,0.2-2.4,0.4-3.8,0.4c-0.2,0-0.4,0-0.5,0.1
	c-0.1,0.1-0.1,0.3-0.1,0.6V40.3z"/>
<polygon class="st3" points="28.1,61.5 23.5,61.5 24.4,60.3 26.6,60.3 47.9,33.3 26.5,7.2 27.7,5.2 50.5,33.3 "/>
<path class="st0" d="M53.6,67.6c0.5,0,1,0.2,1.3,0.6c0.3,0.3,0.5,0.8,0.5,1.2c0,0.5-0.2,0.9-0.5,1.2c-0.3,0.3-0.7,0.5-1.3,0.5
	c-0.5,0-0.9-0.2-1.3-0.5c-0.3-0.3-0.5-0.7-0.5-1.2c0-0.5,0.2-0.9,0.5-1.2C52.7,67.8,53.1,67.6,53.6,67.6z"/>
<path class="st4" d="M64.7,65.7c-0.5,0-0.9,0.1-1.1,0.3c-0.2,0.2-0.3,0.5-0.2,0.9v5.7c0,0.3,0.1,0.6,0.3,0.8c0.2,0.2,0.5,0.3,1,0.3
	v0.2h-4v-0.2c0.5,0,0.9-0.1,1-0.2c0.2-0.2,0.3-0.4,0.3-0.8v-5.7c0-0.4,0-0.7-0.2-0.9c-0.1-0.2-0.5-0.3-1.1-0.3v-0.2h4V65.7z"/>
<path class="st4" d="M72.9,66.7c0-0.3-0.1-0.6-0.3-0.7c-0.2-0.2-0.5-0.3-1-0.3v-0.2h3.2v0.2c-0.5,0-0.8,0.1-1,0.2
	c-0.2,0.2-0.3,0.4-0.3,0.8v7.2h-0.3l-6-6.8v5.5c0,0.4,0.1,0.7,0.3,0.8c0.2,0.2,0.5,0.2,1,0.2v0.2h-3.2v-0.2c0.5,0,0.9-0.1,1-0.2
	c0.2-0.2,0.3-0.4,0.3-0.8v-6c-0.2-0.3-0.3-0.5-0.6-0.6c-0.2-0.2-0.5-0.2-0.7-0.2v-0.2h2.3l5.3,6V66.7z"/>
<path class="st4" d="M81.3,71.5c0,0.8-0.2,1.4-0.7,1.8c-0.5,0.4-1.2,0.7-2.1,0.7c-0.6,0-1-0.1-1.3-0.2c-0.3-0.1-0.5-0.1-0.7-0.2
	c-0.1,0-0.2,0-0.3,0.1c-0.1,0.1-0.1,0.1-0.2,0.2h-0.2l-0.5-2.7h0.3c0.2,0.6,0.6,1.1,1,1.6c0.5,0.5,1,0.7,1.7,0.7
	c0.5,0,0.9-0.2,1.2-0.5c0.3-0.3,0.4-0.6,0.4-1c0-0.5-0.3-0.9-0.7-1.2c-0.4-0.3-0.9-0.6-1.5-0.9c-0.6-0.3-1.1-0.6-1.5-1
	c-0.4-0.4-0.7-0.9-0.7-1.5c0-0.6,0.2-1.1,0.7-1.5c0.5-0.4,1.1-0.6,1.9-0.6c0.5,0,0.8,0.1,1.1,0.2c0.3,0.1,0.5,0.2,0.7,0.2
	c0.1,0,0.2-0.1,0.3-0.1c0.1-0.1,0.1-0.2,0.1-0.3c0,0,0.1,0,0.1,0c0.1,0,0.1,0,0.1,0l0.3,2.5h-0.3c-0.2-0.5-0.4-1-0.8-1.4
	c-0.4-0.4-0.9-0.7-1.5-0.7c-0.5,0-0.9,0.2-1.1,0.4c-0.3,0.3-0.4,0.5-0.4,0.9c0,0.4,0.2,0.8,0.7,1.1c0.4,0.3,1,0.6,1.5,0.9
	c0.6,0.3,1.1,0.6,1.5,1C81.1,70.4,81.3,70.9,81.3,71.5z"/>
<path class="st4" d="M85.6,65.9c-0.3,0-0.4,0-0.6,0.1c-0.1,0.1-0.2,0.3-0.2,0.5v2.7c0,0.2,0,0.3,0.1,0.3c0.1,0.1,0.2,0.1,0.4,0.1
	c0.5,0,1-0.1,1.5-0.3c0.5-0.2,0.8-0.8,0.8-1.6c0-0.6-0.2-1.1-0.5-1.4C86.9,66,86.4,65.9,85.6,65.9z M86.3,65.4
	c1.1,0,1.9,0.3,2.3,0.7c0.4,0.4,0.6,0.9,0.6,1.5c-0.1,1-0.5,1.7-1.2,2c-0.7,0.3-1.4,0.4-2,0.4h-0.8c-0.1,0-0.2,0-0.2,0.1
	c0,0-0.1,0.1-0.1,0.2v1.7c0,0.6,0,1,0.2,1.3c0.1,0.3,0.5,0.4,1.1,0.4v0.2h-3.9v-0.2c0.6,0,1-0.1,1.1-0.4c0.1-0.2,0.2-0.7,0.2-1.3
	v-5.3c0-0.4-0.1-0.6-0.3-0.8c-0.2-0.1-0.5-0.2-1-0.2v-0.2H86.3z"/>
<path class="st4" d="M94.1,65.7c-0.5,0-0.9,0.1-1.1,0.3c-0.2,0.2-0.3,0.5-0.2,0.9v5.7c0,0.3,0.1,0.6,0.3,0.8c0.2,0.2,0.5,0.3,1,0.3
	v0.2h-4v-0.2c0.5,0,0.9-0.1,1-0.2c0.2-0.2,0.3-0.4,0.3-0.8v-5.7c0-0.4,0-0.7-0.2-0.9c-0.1-0.2-0.5-0.3-1.1-0.3v-0.2h4V65.7z"/>
<path class="st4" d="M97.6,69.3c0,0.1,0,0.2,0.1,0.3c0.1,0,0.3,0.1,0.5,0.1c1,0,1.7-0.2,2.1-0.5c0.4-0.3,0.7-0.8,0.7-1.4
	c0-0.5-0.2-0.9-0.5-1.2c-0.4-0.3-1-0.5-1.9-0.5c-0.3,0-0.6,0-0.7,0.1c-0.2,0.1-0.2,0.2-0.2,0.4V69.3z M95,73.6c0.6,0,1-0.1,1.1-0.3
	c0.2-0.2,0.2-0.5,0.2-0.9v-5.7c0-0.4-0.1-0.6-0.3-0.8c-0.2-0.1-0.5-0.2-1-0.2v-0.2h4.6c0.9,0,1.7,0.2,2.2,0.6
	c0.5,0.4,0.8,0.9,0.8,1.5c0,0.6-0.2,1-0.5,1.4c-0.4,0.4-0.9,0.6-1.7,0.8c0.7,0.9,1.3,1.6,1.8,2.1c0.5,0.5,0.8,0.9,1.1,1.1
	c0.3,0.2,0.5,0.4,0.6,0.5c0.1,0.1,0.2,0.1,0.3,0.1v0.2h-2c-0.5-0.5-1.1-1.2-1.7-1.9c-0.6-0.7-1.2-1.4-1.6-1.9h-0.7
	c-0.2,0-0.3,0-0.4,0.1c-0.1,0.1-0.1,0.2-0.1,0.3v1.9c0,0.4,0.1,0.8,0.2,0.9c0.2,0.2,0.6,0.3,1.1,0.3v0.2h-4V73.6z"/>
<path class="st4" d="M104.6,65.7v-0.2h7.5l0.1,1.8H112c-0.1-0.4-0.2-0.8-0.5-1c-0.2-0.2-0.7-0.3-1.3-0.3h-2c-0.5,0-0.7,0-0.8,0.1
	c-0.1,0.1-0.1,0.4-0.1,0.8v1.9c0,0.2,0,0.3,0.1,0.4c0.1,0.1,0.2,0.1,0.5,0.1h2c0.6,0,0.9-0.1,1.1-0.3c0.2-0.2,0.3-0.5,0.3-0.9h0.2
	v2.9h-0.2c0-0.4-0.1-0.7-0.3-0.9c-0.2-0.2-0.6-0.3-1.1-0.3h-2c-0.3,0-0.4,0-0.5,0.1c-0.1,0.1-0.1,0.2-0.1,0.5v2.3
	c0,0.4,0,0.6,0.2,0.7c0.1,0.1,0.5,0.1,1.1,0.1h1.7c0.7,0,1.2-0.1,1.6-0.3c0.4-0.2,0.7-0.7,1-1.3l0.2,0.1l-0.7,2h-7.7v-0.2
	c0.4,0,0.8-0.1,1-0.2c0.2-0.1,0.3-0.3,0.3-0.7v-6.2c0-0.3-0.1-0.5-0.3-0.7C105.4,65.8,105.1,65.7,104.6,65.7z"/>
<path class="st0" d="M119.8,67.6c0.5,0,1,0.2,1.3,0.6c0.3,0.3,0.5,0.8,0.5,1.2c0,0.5-0.2,0.9-0.5,1.2c-0.3,0.3-0.7,0.5-1.3,0.5
	c-0.5,0-0.9-0.2-1.3-0.5c-0.3-0.3-0.5-0.7-0.5-1.2c0-0.5,0.2-0.9,0.5-1.2C118.8,67.8,119.3,67.6,119.8,67.6z"/>
<path class="st4" d="M130.8,65.7c-0.5,0-0.9,0.1-1.1,0.3c-0.2,0.2-0.3,0.5-0.2,0.9v5.7c0,0.3,0.1,0.6,0.3,0.8c0.2,0.2,0.5,0.3,1,0.3
	v0.2h-4v-0.2c0.5,0,0.9-0.1,1-0.2c0.2-0.2,0.3-0.4,0.3-0.8v-5.7c0-0.4,0-0.7-0.2-0.9c-0.1-0.2-0.5-0.3-1.1-0.3v-0.2h4V65.7z"/>
<path class="st4" d="M139,66.7c0-0.3-0.1-0.6-0.3-0.7c-0.2-0.2-0.5-0.3-1-0.3v-0.2h3.2v0.2c-0.5,0-0.8,0.1-1,0.2
	c-0.2,0.2-0.3,0.4-0.3,0.8v7.2h-0.3l-6-6.8v5.5c0,0.4,0.1,0.7,0.3,0.8c0.2,0.2,0.5,0.2,1,0.2v0.2h-3.2v-0.2c0.5,0,0.9-0.1,1-0.2
	c0.2-0.2,0.3-0.4,0.3-0.8v-6c-0.2-0.3-0.3-0.5-0.6-0.6c-0.2-0.2-0.5-0.2-0.7-0.2v-0.2h2.3l5.3,6V66.7z"/>
<path class="st4" d="M148.9,66.7c0-0.3-0.1-0.6-0.3-0.7c-0.2-0.2-0.5-0.3-1-0.3v-0.2h3.2v0.2c-0.5,0-0.8,0.1-1,0.2
	c-0.2,0.2-0.3,0.4-0.3,0.8v7.2h-0.3l-6-6.8v5.5c0,0.4,0.1,0.7,0.3,0.8c0.2,0.2,0.5,0.2,1,0.2v0.2h-3.2v-0.2c0.5,0,0.9-0.1,1-0.2
	c0.2-0.2,0.3-0.4,0.3-0.8v-6c-0.2-0.3-0.3-0.5-0.6-0.6c-0.2-0.2-0.5-0.2-0.7-0.2v-0.2h2.3l5.3,6V66.7z"/>
<path class="st4" d="M156.1,65.7c-1.2,0.1-2,0.5-2.4,1.4c-0.4,0.9-0.6,1.7-0.6,2.6c0,0.9,0.2,1.7,0.7,2.5c0.5,0.8,1.3,1.3,2.4,1.3
	c1.1-0.1,1.9-0.5,2.4-1.3c0.5-0.8,0.7-1.7,0.7-2.6c0-0.9-0.2-1.8-0.6-2.6C158,66.2,157.2,65.8,156.1,65.7z M156,74
	c-1.5-0.1-2.6-0.5-3.4-1.3c-0.8-0.8-1.1-1.7-1.2-2.7v-0.8c0-0.9,0.4-1.8,1.1-2.7c0.7-0.8,1.9-1.3,3.4-1.4c1.5,0.1,2.7,0.5,3.4,1.3
	c0.8,0.8,1.1,1.7,1.1,2.7v0.6c0,1.1-0.4,2-1.1,2.9C158.7,73.5,157.6,74,156,74z"/>
<path class="st4" d="M166.1,74c-0.8-1.8-1.5-3.3-2-4.4c-0.5-1.1-0.9-1.9-1.2-2.5c-0.3-0.6-0.5-1-0.8-1.2c-0.2-0.2-0.5-0.3-0.7-0.3
	v-0.2h3.7v0.2c-0.3,0-0.6,0-0.8,0.1c-0.2,0.1-0.3,0.2-0.3,0.4c-0.1,0,0.1,0.3,0.3,0.9c0.3,0.6,1,2.2,2.3,4.8
	c0.6-1.3,1.1-2.4,1.5-3.2c0.4-0.8,0.6-1.3,0.8-1.7c0.2-0.3,0.3-0.6,0.3-0.7s0.1-0.2,0.1-0.3c0-0.2-0.2-0.4-0.4-0.4s-0.5-0.1-0.6-0.1
	v-0.2h2.6v0.2c-0.2,0-0.4,0.1-0.6,0.3c-0.2,0.2-0.4,0.6-0.7,1.1c-0.3,0.6-0.7,1.4-1.2,2.5c-0.5,1.1-1.2,2.6-2,4.4H166.1z"/>
<path class="st4" d="M173.9,70.6h3.4l-1.6-3.6L173.9,70.6z M173.6,71.1c-0.1,0.3-0.3,0.7-0.5,1.1c-0.2,0.4-0.3,0.7-0.3,0.9
	c0,0.1,0,0.2,0.1,0.3c0.1,0.1,0.4,0.2,0.9,0.2v0.2H171v-0.2c0.1,0,0.3,0,0.4-0.1c0.1-0.1,0.2-0.1,0.3-0.2c0.1,0,0.3-0.4,0.8-1.2
	c0.4-0.8,1.6-3.1,3.4-6.8h0.3c1.8,3.7,2.8,6,3.2,6.8c0.4,0.8,0.7,1.2,0.7,1.2c0.1,0.1,0.3,0.2,0.4,0.2c0.1,0,0.3,0,0.4,0v0.2h-3.7
	v-0.2c0.2,0,0.4,0,0.6-0.1c0.2-0.1,0.3-0.2,0.4-0.4c0-0.2-0.1-0.5-0.3-1c-0.2-0.4-0.4-0.8-0.5-1.1H173.6z"/>
<path class="st4" d="M185.7,72.4c0,0.4,0.1,0.7,0.2,0.9c0.2,0.2,0.5,0.3,1.1,0.3v0.2H183v-0.2c0.6,0,1-0.1,1.1-0.3
	c0.2-0.2,0.2-0.5,0.2-0.9v-5.9c0-0.3,0-0.4-0.1-0.5c-0.1-0.1-0.3-0.1-0.6-0.1c-0.8,0-1.4,0.1-1.7,0.3c-0.3,0.2-0.5,0.7-0.6,1.4H181
	v-2.1h8.1v2.1h-0.3c-0.1-0.7-0.3-1.2-0.6-1.4c-0.3-0.2-0.9-0.3-1.7-0.3c-0.3,0-0.5,0-0.6,0.1c-0.1,0.1-0.1,0.2-0.1,0.5V72.4z"/>
<path class="st4" d="M189.5,65.7v-0.2h7.5l0.1,1.8h-0.3c-0.1-0.4-0.2-0.8-0.5-1c-0.2-0.2-0.7-0.3-1.3-0.3h-2c-0.5,0-0.7,0-0.8,0.1
	c-0.1,0.1-0.1,0.4-0.1,0.8v1.9c0,0.2,0,0.3,0.1,0.4c0.1,0.1,0.2,0.1,0.5,0.1h2c0.6,0,0.9-0.1,1.1-0.3c0.2-0.2,0.3-0.5,0.3-0.9h0.2
	v2.9h-0.2c0-0.4-0.1-0.7-0.3-0.9c-0.2-0.2-0.6-0.3-1.1-0.3h-2c-0.3,0-0.4,0-0.5,0.1c-0.1,0.1-0.1,0.2-0.1,0.5v2.3
	c0,0.4,0,0.6,0.2,0.7c0.1,0.1,0.5,0.1,1.1,0.1h1.7c0.7,0,1.2-0.1,1.6-0.3c0.4-0.2,0.7-0.7,1-1.3l0.2,0.1l-0.7,2h-7.7v-0.2
	c0.4,0,0.8-0.1,1-0.2c0.2-0.1,0.3-0.3,0.3-0.7v-6.2c0-0.3-0.1-0.5-0.3-0.7C190.3,65.8,190,65.7,189.5,65.7z"/>
<path class="st0" d="M204.7,67.6c0.5,0,1,0.2,1.3,0.6c0.3,0.3,0.5,0.8,0.5,1.2c0,0.5-0.2,0.9-0.5,1.2s-0.7,0.5-1.3,0.5
	c-0.5,0-0.9-0.2-1.3-0.5c-0.3-0.3-0.5-0.7-0.5-1.2c0-0.5,0.2-0.9,0.5-1.2C203.8,67.8,204.2,67.6,204.7,67.6z"/>
<path class="st4" d="M215.6,65.7c-0.5,0-0.8,0.1-1,0.3c-0.2,0.2-0.3,0.5-0.3,0.8v5.9c0,0.2,0,0.4,0.1,0.5c0.1,0.1,0.3,0.2,0.7,0.2
	h1.4c0.7,0,1.3-0.1,1.7-0.3c0.4-0.2,0.8-0.7,1.1-1.4h0.3l-0.7,2.1h-7.3v-0.2c0.6,0,0.9-0.1,1.1-0.3c0.2-0.2,0.2-0.5,0.2-0.8v-5.7
	c0-0.4-0.1-0.7-0.2-0.9c-0.2-0.2-0.5-0.3-1.1-0.2v-0.2h4V65.7z"/>
<path class="st4" d="M219.8,65.7v-0.2h7.5l0.1,1.8h-0.3c-0.1-0.4-0.2-0.8-0.5-1c-0.2-0.2-0.7-0.3-1.3-0.3h-2c-0.5,0-0.7,0-0.8,0.1
	c-0.1,0.1-0.1,0.4-0.1,0.8v1.9c0,0.2,0,0.3,0.1,0.4c0.1,0.1,0.2,0.1,0.5,0.1h2c0.6,0,0.9-0.1,1.1-0.3c0.2-0.2,0.3-0.5,0.3-0.9h0.2
	v2.9h-0.2c0-0.4-0.1-0.7-0.3-0.9c-0.2-0.2-0.6-0.3-1.1-0.3h-2c-0.3,0-0.4,0-0.5,0.1c-0.1,0.1-0.1,0.2-0.1,0.5v2.3
	c0,0.4,0,0.6,0.2,0.7c0.1,0.1,0.5,0.1,1.1,0.1h1.7c0.7,0,1.2-0.1,1.6-0.3c0.4-0.2,0.7-0.7,1-1.3l0.2,0.1l-0.7,2h-7.7v-0.2
	c0.4,0,0.8-0.1,1-0.2c0.2-0.1,0.3-0.3,0.3-0.7v-6.2c0-0.3-0.1-0.5-0.3-0.7C220.6,65.8,220.3,65.7,219.8,65.7z"/>
<path class="st4" d="M231.2,70.6h3.4l-1.6-3.6L231.2,70.6z M231,71.1c-0.1,0.3-0.3,0.7-0.5,1.1c-0.2,0.4-0.3,0.7-0.3,0.9
	c0,0.1,0,0.2,0.1,0.3c0.1,0.1,0.4,0.2,0.9,0.2v0.2h-2.8v-0.2c0.1,0,0.3,0,0.4-0.1c0.1-0.1,0.2-0.1,0.3-0.2c0.1,0,0.3-0.4,0.8-1.2
	s1.6-3.1,3.4-6.8h0.3c1.8,3.7,2.8,6,3.2,6.8c0.4,0.8,0.7,1.2,0.7,1.2c0.1,0.1,0.3,0.2,0.4,0.2c0.1,0,0.3,0,0.4,0v0.2h-3.7v-0.2
	c0.2,0,0.4,0,0.6-0.1c0.2-0.1,0.3-0.2,0.4-0.4c0-0.2-0.1-0.5-0.3-1c-0.2-0.4-0.4-0.8-0.5-1.1H231z"/>
<path class="st4" d="M242.1,73.4c1.5,0,2.5-0.4,3.2-1c0.7-0.7,1-1.6,1-2.8c0-1-0.3-1.9-1-2.6s-1.7-1.1-3.2-1.1c-0.4,0-0.6,0-0.8,0.2
	c-0.2,0.1-0.2,0.3-0.2,0.5v5.9c0,0.4,0,0.6,0.2,0.8C241.5,73.3,241.7,73.4,242.1,73.4z M242.9,73.8h-4.4v-0.2c0.6,0,0.9-0.1,1.1-0.3
	c0.2-0.2,0.2-0.5,0.2-0.9v-5.6c0-0.4-0.1-0.7-0.2-0.9c-0.2-0.2-0.5-0.3-1.1-0.2v-0.2h4.5c1.7,0,2.9,0.4,3.7,1.2
	c0.8,0.8,1.2,1.8,1.2,2.9c0,1.3-0.5,2.4-1.4,3.1C245.5,73.4,244.4,73.8,242.9,73.8z"/>
<path class="st5" d="M248.7,36.8h-8.8v-1.2c0.3,0,0.6-0.1,0.9-0.1c0.3,0,0.6-0.1,0.8-0.1c0.3-0.1,0.6-0.3,0.8-0.6
	c0.2-0.3,0.3-0.6,0.3-1.1V12.9c0-0.4-0.1-0.9-0.3-1.2c-0.2-0.4-0.4-0.7-0.7-0.9c-0.2-0.1-0.6-0.3-1.2-0.4c-0.6-0.1-1.1-0.2-1.4-0.2
	V8.9l6.8-0.4l0.3,0.3v24.8c0,0.4,0.1,0.8,0.2,1.1c0.2,0.3,0.4,0.5,0.8,0.6c0.3,0.1,0.5,0.2,0.8,0.3c0.3,0.1,0.6,0.1,0.9,0.1V36.8z
	 M232.1,26.9c-1,0.3-2,0.6-2.8,0.9c-0.8,0.3-1.5,0.7-2.2,1.1c-0.6,0.4-1.1,0.9-1.5,1.5c-0.4,0.6-0.5,1.2-0.5,2c0,1,0.3,1.8,0.8,2.2
	c0.5,0.5,1.2,0.7,2,0.7c0.9,0,1.6-0.2,2.3-0.6c0.7-0.4,1.2-0.9,1.7-1.5L232.1,26.9z M238.5,36.5c-0.6,0.2-1.1,0.4-1.5,0.5
	c-0.4,0.1-0.9,0.2-1.5,0.2c-1,0-1.7-0.2-2.3-0.7c-0.6-0.4-0.9-1.1-1.1-2H232c-0.8,0.9-1.6,1.5-2.5,2c-0.9,0.5-2,0.7-3.3,0.7
	c-1.4,0-2.5-0.4-3.3-1.2c-0.9-0.8-1.3-1.9-1.3-3.3c0-0.7,0.1-1.3,0.3-1.9c0.2-0.5,0.5-1,0.9-1.5c0.3-0.4,0.7-0.7,1.2-1
	c0.5-0.3,1-0.5,1.4-0.7c0.6-0.2,1.7-0.6,3.3-1.2c1.7-0.6,2.8-1,3.4-1.3v-1.8c0-0.2,0-0.5-0.1-0.9c-0.1-0.4-0.2-0.9-0.4-1.3
	c-0.2-0.4-0.6-0.8-1-1.2c-0.4-0.3-1.1-0.5-1.9-0.5c-0.6,0-1.1,0.1-1.6,0.3c-0.5,0.2-0.8,0.4-1,0.6c0,0.2,0.1,0.6,0.2,1.1
	c0.1,0.5,0.2,0.9,0.2,1.3c0,0.4-0.2,0.8-0.6,1.2c-0.4,0.4-0.9,0.5-1.6,0.5c-0.6,0-1.1-0.2-1.3-0.6c-0.3-0.4-0.4-0.9-0.4-1.5
	c0-0.6,0.2-1.1,0.6-1.6c0.4-0.5,0.9-1,1.6-1.4c0.6-0.3,1.2-0.6,2-0.9c0.8-0.2,1.5-0.4,2.3-0.4c1,0,1.9,0.1,2.7,0.2
	c0.8,0.1,1.5,0.4,2.1,0.9c0.6,0.5,1.1,1.1,1.4,1.8c0.3,0.8,0.5,1.8,0.5,3c0,1.7,0,3.3-0.1,4.6c0,1.3-0.1,2.8-0.1,4.4
	c0,0.5,0.1,0.9,0.2,1.1c0.2,0.3,0.4,0.5,0.8,0.7c0.2,0.1,0.5,0.2,0.9,0.2c0.4,0,0.8,0,1.2,0V36.5z M208.6,36.1
	c-0.8,0.3-1.5,0.6-2.3,0.8c-0.7,0.2-1.6,0.3-2.6,0.3c-1.5,0-2.6-0.4-3.2-1.1c-0.6-0.8-0.9-1.8-0.9-3.2V20.6h-3.3v-1.8h3.3v-5.6h3.3
	v5.6h5.2v1.8H203v10.1c0,0.8,0,1.4,0.1,1.9c0.1,0.5,0.2,1,0.4,1.3c0.2,0.4,0.5,0.6,0.9,0.8c0.4,0.2,0.9,0.3,1.6,0.3
	c0.3,0,0.8,0,1.3-0.1c0.6-0.1,1-0.1,1.3-0.2V36.1z M195.3,36.8h-8.9v-1.2c0.3,0,0.6,0,0.9-0.1c0.3,0,0.6-0.1,0.8-0.1
	c0.3-0.1,0.6-0.3,0.8-0.6c0.2-0.3,0.2-0.6,0.2-1.1v-9.3c0-1.3-0.3-2.3-0.9-3c-0.6-0.7-1.3-1-2.2-1c-0.6,0-1.2,0.1-1.8,0.3
	c-0.5,0.2-1,0.4-1.4,0.7c-0.4,0.3-0.7,0.6-1,0.9c-0.2,0.3-0.4,0.6-0.5,0.8v10.4c0,0.4,0.1,0.8,0.3,1c0.2,0.3,0.4,0.5,0.8,0.6
	c0.3,0.1,0.5,0.2,0.8,0.3c0.3,0.1,0.6,0.1,0.9,0.1v1.2h-8.9v-1.2l0.9-0.1c0.3,0,0.6-0.1,0.8-0.1c0.3-0.1,0.6-0.3,0.8-0.6
	c0.2-0.3,0.2-0.6,0.2-1.1V22.6c0-0.4-0.1-0.8-0.3-1.1c-0.2-0.3-0.4-0.6-0.7-0.9c-0.2-0.1-0.5-0.3-0.8-0.3c-0.3-0.1-0.7-0.1-1-0.1V19
	l6-0.4l0.3,0.3v2.6h0.1c0.3-0.3,0.7-0.6,1.1-1.1c0.4-0.4,0.9-0.7,1.2-1c0.5-0.3,1-0.5,1.6-0.7c0.6-0.2,1.3-0.3,2.1-0.3
	c1.7,0,3,0.5,3.8,1.6c0.8,1.1,1.2,2.5,1.2,4.3v9.4c0,0.4,0.1,0.8,0.2,1c0.1,0.3,0.4,0.5,0.8,0.6c0.3,0.1,0.6,0.2,0.8,0.3
	c0.2,0,0.5,0.1,0.9,0.1V36.8z M169.1,25.7c0-0.7-0.1-1.4-0.2-2.2c-0.1-0.8-0.3-1.4-0.6-2c-0.3-0.6-0.7-1-1.2-1.4
	c-0.5-0.4-1.1-0.5-1.9-0.5c-1.3,0-2.4,0.5-3.2,1.6c-0.9,1.1-1.3,2.5-1.4,4.4H169.1z M173.2,32.6c-0.8,1.4-1.8,2.6-3.1,3.4
	c-1.3,0.9-2.7,1.3-4.4,1.3c-1.5,0-2.7-0.3-3.8-0.8c-1.1-0.5-2-1.2-2.7-2.1c-0.7-0.9-1.2-1.9-1.6-3.1c-0.3-1.2-0.5-2.4-0.5-3.7
	c0-1.2,0.2-2.3,0.6-3.4c0.4-1.1,0.9-2.1,1.6-3c0.7-0.9,1.6-1.6,2.6-2.1c1-0.5,2.2-0.8,3.5-0.8c1.3,0,2.5,0.2,3.4,0.6
	c0.9,0.4,1.7,1,2.3,1.7c0.6,0.7,1,1.5,1.3,2.4c0.3,0.9,0.4,1.9,0.4,3v1.2h-12c0,1.2,0.1,2.3,0.3,3.2c0.2,1,0.6,1.8,1.1,2.5
	c0.5,0.7,1.1,1.3,1.9,1.7c0.8,0.4,1.7,0.6,2.8,0.6c1.1,0,2-0.3,2.8-0.8c0.8-0.5,1.6-1.4,2.3-2.8L173.2,32.6z M148.7,33.3V22.8
	c-0.1-0.3-0.3-0.7-0.5-1c-0.2-0.4-0.5-0.7-0.8-1c-0.4-0.3-0.8-0.6-1.3-0.8c-0.5-0.2-1-0.3-1.7-0.3c-0.7,0-1.4,0.2-2,0.6
	c-0.6,0.4-1.2,0.9-1.6,1.6c-0.5,0.7-0.8,1.5-1.1,2.6c-0.3,1.1-0.4,2.2-0.4,3.5c0,1,0.1,2,0.3,2.8c0.2,0.8,0.5,1.6,1,2.3
	c0.4,0.7,1,1.2,1.6,1.6c0.7,0.4,1.5,0.6,2.4,0.6c1,0,1.8-0.2,2.4-0.6C147.7,34.3,148.3,33.8,148.7,33.3z M155.4,36.5l-6.3,0.4
	l-0.3-0.3V35l-0.1,0c-0.6,0.7-1.4,1.3-2.4,1.7c-0.9,0.5-1.9,0.7-2.9,0.7c-1,0-2-0.2-3-0.7c-1-0.5-1.8-1.1-2.5-1.9
	c-0.7-0.8-1.3-1.9-1.7-3c-0.4-1.2-0.6-2.5-0.6-3.9c0-1.3,0.2-2.5,0.7-3.7c0.5-1.2,1.1-2.2,1.9-3.1c0.7-0.8,1.7-1.5,2.7-2
	c1.1-0.5,2.2-0.7,3.3-0.7c0.8,0,1.7,0.1,2.5,0.3c0.8,0.2,1.5,0.5,2.1,0.8v-6.3c0-0.5-0.1-1-0.3-1.4c-0.2-0.4-0.4-0.7-0.7-1
	c-0.3-0.2-0.8-0.4-1.4-0.5c-0.6-0.1-1.2-0.2-1.9-0.2V8.9l7.4-0.4l0.3,0.3v24.3c0,0.4,0.1,0.8,0.2,1.1c0.2,0.3,0.4,0.6,0.7,0.8
	c0.2,0.1,0.6,0.2,1,0.3c0.4,0,0.8,0.1,1.2,0.1V36.5z M131.1,11.4c0,0.7-0.2,1.3-0.7,1.8c-0.5,0.5-1,0.8-1.7,0.8
	c-0.6,0-1.2-0.2-1.6-0.7c-0.5-0.5-0.7-1.1-0.7-1.7c0-0.7,0.2-1.3,0.7-1.8c0.5-0.5,1-0.8,1.6-0.8c0.7,0,1.3,0.2,1.7,0.7
	C130.9,10.3,131.1,10.8,131.1,11.4z M133.4,36.8h-8.8v-1.2l0.9-0.1c0.3,0,0.6-0.1,0.8-0.1c0.3-0.1,0.6-0.3,0.8-0.6
	c0.2-0.3,0.2-0.6,0.2-1.1V22.6c0-0.4-0.1-0.7-0.3-1.1c-0.2-0.3-0.4-0.6-0.7-0.8c-0.2-0.1-0.6-0.3-1-0.4s-0.8-0.2-1.2-0.2V19l6.4-0.4
	l0.3,0.3v14.7c0,0.4,0.1,0.8,0.2,1.1c0.2,0.3,0.4,0.5,0.8,0.6c0.3,0.1,0.5,0.2,0.8,0.3c0.3,0.1,0.5,0.1,0.9,0.1V36.8z M120.3,28
	c0.5,0.4,0.9,0.9,1.1,1.5c0.3,0.6,0.4,1.3,0.4,2.1c0,1.7-0.6,3-1.9,4.1c-1.2,1.1-2.9,1.6-4.8,1.6c-1,0-2-0.2-2.9-0.6
	c-0.9-0.4-1.5-0.7-1.9-1.1l-0.4,1.2h-1.4l-0.2-6.3h1.3c0.1,0.5,0.3,1,0.6,1.7c0.3,0.6,0.7,1.2,1.1,1.7c0.5,0.5,1,1,1.7,1.4
	c0.7,0.4,1.4,0.6,2.2,0.6c1.2,0,2.1-0.3,2.7-0.8c0.6-0.5,0.9-1.3,0.9-2.3c0-0.5-0.1-1-0.3-1.3c-0.2-0.4-0.5-0.7-0.9-1
	c-0.4-0.3-0.9-0.5-1.5-0.8c-0.6-0.2-1.2-0.4-1.9-0.7c-0.6-0.2-1.2-0.4-1.9-0.7c-0.7-0.3-1.3-0.6-1.8-1.1c-0.5-0.4-1-1-1.3-1.6
	c-0.3-0.6-0.5-1.4-0.5-2.2c0-1.5,0.5-2.7,1.6-3.7c1.1-1,2.6-1.5,4.4-1.5c0.7,0,1.4,0.1,2.2,0.3c0.7,0.2,1.3,0.4,1.8,0.7l0.4-1h1.3
	l0.3,5.8h-1.3c-0.3-1.3-0.8-2.3-1.6-3.1c-0.8-0.8-1.9-1.2-3.1-1.2c-1,0-1.8,0.3-2.3,0.8c-0.6,0.5-0.9,1.1-0.9,1.8
	c0,0.5,0.1,1,0.3,1.4c0.2,0.4,0.5,0.7,0.8,0.9c0.4,0.2,0.8,0.5,1.4,0.7s1.2,0.5,2.1,0.7c0.8,0.3,1.6,0.6,2.3,0.9
	C119.3,27.2,119.8,27.6,120.3,28z M102.2,25.7c0-0.7-0.1-1.4-0.2-2.2c-0.1-0.8-0.3-1.4-0.6-2c-0.3-0.6-0.7-1-1.2-1.4
	c-0.5-0.4-1.1-0.5-1.9-0.5c-1.3,0-2.4,0.5-3.2,1.6c-0.9,1.1-1.3,2.5-1.4,4.4H102.2z M106.3,32.6c-0.8,1.4-1.8,2.6-3.1,3.4
	c-1.3,0.9-2.7,1.3-4.4,1.3c-1.5,0-2.7-0.3-3.8-0.8c-1.1-0.5-2-1.2-2.7-2.1c-0.7-0.9-1.2-1.9-1.6-3.1c-0.3-1.2-0.5-2.4-0.5-3.7
	c0-1.2,0.2-2.3,0.6-3.4s0.9-2.1,1.6-3c0.7-0.9,1.6-1.6,2.6-2.1c1-0.5,2.2-0.8,3.5-0.8c1.3,0,2.5,0.2,3.4,0.6c0.9,0.4,1.7,1,2.3,1.7
	c0.6,0.7,1,1.5,1.3,2.4c0.3,0.9,0.4,1.9,0.4,3v1.2h-12c0,1.2,0.1,2.3,0.3,3.2c0.2,1,0.6,1.8,1.1,2.5c0.5,0.7,1.1,1.3,1.9,1.7
	c0.8,0.4,1.7,0.6,2.8,0.6c1.1,0,2-0.3,2.8-0.8s1.6-1.4,2.3-2.8L106.3,32.6z M88.7,21.1c0,0.6-0.2,1.2-0.5,1.7
	c-0.3,0.5-0.8,0.7-1.4,0.7c-0.7,0-1.2-0.2-1.6-0.5c-0.4-0.4-0.5-0.7-0.5-1.2c0-0.3,0-0.5,0.1-0.7c0-0.2,0.1-0.4,0.1-0.7
	c-0.6,0-1.2,0.2-2,0.7c-0.8,0.5-1.4,1.1-1.9,2v10.5c0,0.4,0.1,0.8,0.2,1c0.2,0.3,0.4,0.5,0.8,0.6c0.3,0.1,0.7,0.2,1.2,0.3
	c0.5,0.1,0.9,0.1,1.3,0.1v1.2h-9.6v-1.2l0.9-0.1c0.3,0,0.6-0.1,0.8-0.1c0.3-0.1,0.6-0.3,0.8-0.6c0.2-0.3,0.2-0.6,0.2-1.1V22.6
	c0-0.4-0.1-0.7-0.3-1.1c-0.2-0.4-0.4-0.7-0.7-0.9c-0.2-0.1-0.5-0.3-0.8-0.3c-0.3-0.1-0.7-0.1-1-0.1V19l6-0.4l0.3,0.3v2.5h0.1
	c0.8-1,1.6-1.7,2.5-2.3c0.9-0.5,1.8-0.8,2.5-0.8c0.8,0,1.4,0.2,1.9,0.7C88.5,19.6,88.7,20.2,88.7,21.1z M66.8,21.7
	c0.4-0.6,0.7-1.2,0.8-1.8c0.1-0.6,0.2-1.2,0.2-1.7c0-0.7-0.1-1.4-0.2-2.1c-0.2-0.7-0.4-1.3-0.9-1.9c-0.4-0.6-1-1-1.7-1.3
	c-0.7-0.3-1.6-0.5-2.6-0.5h-2.6v11.5h1.9c1.3,0,2.4-0.2,3.2-0.6C65.7,22.8,66.4,22.3,66.8,21.7z M72.3,17.3c0,1.4-0.3,2.6-0.8,3.6
	c-0.5,1-1.3,1.9-2.2,2.6c-0.9,0.7-1.9,1.2-3.1,1.5c-1.1,0.3-2.3,0.5-3.5,0.5h-2.9v7.9c0,0.4,0.1,0.8,0.2,1.1
	c0.1,0.3,0.4,0.6,0.9,0.7c0.2,0.1,0.6,0.2,1.2,0.2c0.6,0.1,1.1,0.1,1.5,0.1v1.3H52.5v-1.3c0.3,0,0.7-0.1,1.3-0.1
	c0.6-0.1,0.9-0.1,1.2-0.2c0.4-0.2,0.6-0.4,0.8-0.7c0.2-0.3,0.2-0.7,0.2-1.2V14.6c0-0.4-0.1-0.8-0.2-1.2c-0.1-0.3-0.4-0.6-0.9-0.8
	c-0.5-0.2-0.9-0.3-1.4-0.3c-0.5-0.1-0.9-0.1-1.2-0.1v-1.3h11.9c2.4,0,4.4,0.6,5.9,1.8C71.6,13.8,72.3,15.3,72.3,17.3z M219.2,36.8
	h-8.8v-1.2l0.9-0.1c0.3,0,0.6-0.1,0.8-0.1c0.3-0.1,0.6-0.3,0.8-0.6c0.2-0.3,0.2-0.6,0.2-1.1V22.6c0-0.4-0.1-0.7-0.3-1.1
	c-0.2-0.3-0.4-0.6-0.7-0.8c-0.2-0.1-0.6-0.3-1-0.4c-0.4-0.1-0.8-0.2-1.2-0.2V19l6.4-0.4l0.3,0.3v14.7c0,0.4,0.1,0.8,0.2,1.1
	c0.2,0.3,0.4,0.5,0.8,0.6c0.3,0.1,0.5,0.2,0.8,0.3c0.3,0.1,0.5,0.1,0.9,0.1V36.8z M216.9,11.4c0,0.7-0.2,1.3-0.7,1.8
	c-0.5,0.5-1,0.8-1.7,0.8c-0.6,0-1.2-0.2-1.6-0.7c-0.5-0.5-0.7-1.1-0.7-1.7c0-0.7,0.2-1.3,0.7-1.8c0.5-0.5,1-0.8,1.6-0.8
	c0.7,0,1.3,0.2,1.7,0.7C216.7,10.3,216.9,10.8,216.9,11.4z"/>
<polygon class="st6" points="48.4,42 250,42 250,61.2 33.7,61.2 "/>
<path class="st2" d="M59.4,54.1c0-0.7-0.2-1.3-0.7-1.7c-0.4-0.4-1.1-0.6-1.9-0.6c-0.1,0-0.2,0-0.4,0c-0.2,0-0.3,0-0.3,0v3.9
	c0,0.2,0.2,0.3,0.4,0.5c0.2,0.1,0.5,0.2,0.8,0.2c0.6,0,1.1-0.2,1.4-0.6C59.2,55.4,59.4,54.8,59.4,54.1z M58.9,49.1
	c0-0.6-0.2-1-0.5-1.4s-0.8-0.5-1.5-0.5c-0.1,0-0.2,0-0.4,0c-0.2,0-0.3,0-0.4,0v3.9h0.4c0.8,0,1.4-0.2,1.8-0.6
	C58.7,50.2,58.9,49.7,58.9,49.1z M61.3,52.2c0.3,0.2,0.6,0.5,0.8,0.8c0.2,0.3,0.3,0.7,0.3,1.2c0,0.5-0.1,1-0.3,1.4
	c-0.2,0.4-0.5,0.7-1,0.9c-0.4,0.2-1,0.4-1.5,0.5c-0.6,0.1-1.3,0.1-2,0.1H52v-0.6c0.2,0,0.3,0,0.6-0.1c0.2,0,0.4-0.1,0.5-0.1
	c0.2-0.1,0.3-0.2,0.4-0.3c0.1-0.1,0.1-0.3,0.1-0.5v-7.4c0-0.2,0-0.3-0.1-0.4c-0.1-0.1-0.2-0.2-0.4-0.3c-0.2-0.1-0.3-0.1-0.5-0.2
	c-0.2,0-0.4-0.1-0.5-0.1v-0.6h5.7c1.4,0,2.5,0.2,3.1,0.6c0.6,0.4,1,1,1,1.7c0,0.4-0.1,0.7-0.2,0.9c-0.1,0.3-0.3,0.5-0.6,0.7
	c-0.2,0.2-0.5,0.3-0.9,0.5c-0.3,0.1-0.7,0.2-1.1,0.3v0.1c0.4,0,0.8,0.1,1.2,0.3C60.6,51.8,61,52,61.3,52.2z"/>
<path class="st2" d="M78.4,47.1c-0.1,0-0.4,0-0.6,0.1c-0.3,0.1-0.5,0.1-0.7,0.3c-0.2,0.1-0.3,0.3-0.4,0.7c-0.1,0.3-0.1,0.8-0.1,1.4
	v3.9c0,1.1-0.4,2.1-1.2,2.8c-0.8,0.7-1.8,1-3.1,1c-1.5,0-2.7-0.3-3.5-1c-0.8-0.7-1.2-1.6-1.2-2.8v-5.4c0-0.2,0-0.3-0.1-0.4
	c-0.1-0.1-0.2-0.2-0.4-0.3c-0.1-0.1-0.3-0.1-0.5-0.2c-0.2,0-0.3-0.1-0.5-0.1v-0.6h5.5v0.6c-0.2,0-0.3,0-0.5,0.1
	c-0.2,0-0.3,0.1-0.5,0.1c-0.2,0.1-0.3,0.2-0.4,0.3c-0.1,0.1-0.1,0.3-0.1,0.5v5.3c0,1,0.2,1.8,0.7,2.3c0.5,0.5,1.1,0.7,2,0.7
	c0.9,0,1.5-0.3,2-0.8c0.5-0.5,0.7-1.3,0.7-2.3v-3.6c0-0.6,0-1.1-0.1-1.4c-0.1-0.3-0.2-0.5-0.4-0.7c-0.1-0.1-0.4-0.2-0.7-0.3
	c-0.3-0.1-0.5-0.1-0.7-0.2v-0.6h4.6V47.1z"/>
<path class="st2" d="M86.1,57.3c-0.6,0-1.2-0.1-1.8-0.2c-0.6-0.2-1-0.3-1.4-0.6L82.4,57h-0.6l-0.1-3.8h0.6c0.1,0.4,0.3,0.7,0.5,1.1
	c0.2,0.4,0.5,0.8,0.8,1.1c0.3,0.3,0.6,0.6,1,0.8c0.4,0.2,0.8,0.3,1.3,0.3c0.7,0,1.2-0.2,1.5-0.5c0.4-0.3,0.5-0.7,0.5-1.2
	c0-0.4-0.2-0.8-0.5-1c-0.3-0.3-0.8-0.5-1.4-0.7c-0.4-0.1-0.8-0.3-1.1-0.4c-0.3-0.1-0.7-0.2-1-0.3c-0.7-0.3-1.2-0.7-1.6-1.2
	c-0.3-0.5-0.5-1.1-0.5-1.8c0-0.4,0.1-0.8,0.3-1.2c0.2-0.4,0.4-0.7,0.8-1c0.3-0.3,0.7-0.5,1.3-0.7c0.5-0.2,1.1-0.3,1.7-0.3
	c0.6,0,1.1,0.1,1.6,0.2c0.5,0.2,0.9,0.3,1.2,0.5l0.5-0.4h0.6l0.1,3.6h-0.6c-0.1-0.4-0.3-0.8-0.5-1.2c-0.2-0.4-0.4-0.7-0.6-1
	c-0.2-0.3-0.5-0.5-0.8-0.7c-0.3-0.2-0.7-0.3-1.1-0.3c-0.5,0-1,0.2-1.3,0.5c-0.3,0.3-0.5,0.7-0.5,1.1c0,0.4,0.1,0.8,0.4,1
	c0.3,0.3,0.8,0.5,1.4,0.7c0.4,0.1,0.7,0.2,1.1,0.4c0.4,0.1,0.7,0.2,1,0.4c0.7,0.3,1.3,0.7,1.6,1.1c0.4,0.5,0.6,1.1,0.6,1.8
	c0,0.5-0.1,0.9-0.3,1.3c-0.2,0.4-0.5,0.8-0.9,1.1c-0.4,0.3-0.9,0.6-1.4,0.7C87.4,57.3,86.8,57.3,86.1,57.3z"/>
<path class="st2" d="M100,57h-5.8v-0.6c0.1,0,0.3,0,0.6,0c0.3,0,0.4,0,0.5-0.1c0.2-0.1,0.3-0.2,0.4-0.3c0.1-0.1,0.1-0.3,0.1-0.5
	v-7.5c0-0.2,0-0.3-0.1-0.4c-0.1-0.1-0.2-0.2-0.4-0.3c-0.1,0-0.3-0.1-0.5-0.2c-0.2-0.1-0.4-0.1-0.6-0.1v-0.6h5.8v0.6
	c-0.1,0-0.3,0-0.6,0.1c-0.2,0-0.4,0.1-0.6,0.1c-0.2,0.1-0.3,0.2-0.4,0.3c-0.1,0.1-0.1,0.3-0.1,0.5v7.4c0,0.2,0,0.3,0.1,0.5
	c0.1,0.1,0.2,0.2,0.4,0.3c0.1,0,0.3,0.1,0.5,0.1c0.2,0,0.4,0.1,0.6,0.1V57z"/>
<path class="st2" d="M115.8,47.1c-0.1,0-0.3,0-0.6,0.1c-0.3,0-0.5,0.1-0.7,0.3c-0.2,0.1-0.3,0.4-0.4,0.7c-0.1,0.3-0.1,0.8-0.1,1.4
	v7.5h-1.3l-6.5-8.1v4.9c0,0.6,0,1.1,0.1,1.4c0.1,0.3,0.2,0.6,0.4,0.7c0.1,0.1,0.3,0.2,0.6,0.3c0.3,0.1,0.5,0.1,0.7,0.2V57h-4.5v-0.6
	c0.2,0,0.4-0.1,0.7-0.1c0.2-0.1,0.5-0.1,0.6-0.3c0.2-0.1,0.3-0.4,0.4-0.6c0.1-0.3,0.1-0.8,0.1-1.5v-5c0-0.2,0-0.5-0.1-0.7
	c-0.1-0.2-0.2-0.4-0.4-0.6c-0.2-0.2-0.4-0.3-0.6-0.4c-0.2-0.1-0.5-0.2-0.8-0.2v-0.6h4l5.7,7.1v-4c0-0.6,0-1.1-0.1-1.4
	c-0.1-0.3-0.2-0.5-0.4-0.7c-0.1-0.1-0.4-0.2-0.6-0.3c-0.3-0.1-0.5-0.1-0.7-0.2v-0.6h4.5V47.1z"/>
<path class="st2" d="M128.6,49.2H128c-0.1-0.4-0.4-0.8-0.7-1.2c-0.4-0.4-0.7-0.7-1-0.7c-0.1,0-0.4-0.1-0.6-0.1c-0.3,0-0.5,0-0.7,0
	h-1.5v4.1h1.1c0.3,0,0.5,0,0.7-0.1c0.2-0.1,0.4-0.2,0.6-0.4c0.1-0.1,0.2-0.3,0.3-0.6c0.1-0.3,0.2-0.5,0.2-0.8h0.6v4.4h-0.6
	c0-0.2-0.1-0.5-0.2-0.8c-0.1-0.3-0.2-0.5-0.3-0.6c-0.2-0.2-0.4-0.3-0.6-0.4c-0.2-0.1-0.5-0.1-0.8-0.1h-1.1v3c0,0.3,0,0.6,0.1,0.8
	c0,0.2,0.1,0.3,0.3,0.4c0.1,0.1,0.3,0.2,0.5,0.2c0.2,0,0.5,0,0.9,0c0.2,0,0.4,0,0.6,0c0.2,0,0.5,0,0.6,0c0.2,0,0.4-0.1,0.6-0.1
	c0.2,0,0.3-0.1,0.4-0.2c0.2-0.2,0.5-0.6,0.8-1.1c0.3-0.5,0.5-0.9,0.6-1.1h0.5l-0.2,3.3h-9.9v-0.6c0.1,0,0.3,0,0.6-0.1
	c0.2,0,0.4-0.1,0.5-0.1c0.2-0.1,0.3-0.2,0.4-0.3c0.1-0.1,0.1-0.3,0.1-0.5v-7.4c0-0.2,0-0.3-0.1-0.4c-0.1-0.1-0.2-0.2-0.4-0.3
	c-0.1-0.1-0.3-0.1-0.5-0.2c-0.2,0-0.4-0.1-0.5-0.1v-0.6h9.3V49.2z"/>
<path class="st2" d="M137.4,57.3c-0.6,0-1.2-0.1-1.8-0.2c-0.6-0.2-1-0.3-1.4-0.6l-0.5,0.5H133l-0.1-3.8h0.6c0.1,0.4,0.3,0.7,0.5,1.1
	c0.2,0.4,0.5,0.8,0.8,1.1c0.3,0.3,0.6,0.6,1,0.8c0.4,0.2,0.8,0.3,1.3,0.3c0.7,0,1.2-0.2,1.5-0.5c0.4-0.3,0.5-0.7,0.5-1.2
	c0-0.4-0.2-0.8-0.5-1c-0.3-0.3-0.8-0.5-1.4-0.7c-0.4-0.1-0.8-0.3-1.1-0.4c-0.3-0.1-0.7-0.2-1-0.3c-0.7-0.3-1.2-0.7-1.6-1.2
	c-0.3-0.5-0.5-1.1-0.5-1.8c0-0.4,0.1-0.8,0.3-1.2c0.2-0.4,0.4-0.7,0.8-1c0.3-0.3,0.7-0.5,1.3-0.7c0.5-0.2,1.1-0.3,1.7-0.3
	c0.6,0,1.1,0.1,1.6,0.2c0.5,0.2,0.9,0.3,1.2,0.5l0.5-0.4h0.6l0.1,3.6h-0.6c-0.1-0.4-0.3-0.8-0.5-1.2c-0.2-0.4-0.4-0.7-0.6-1
	c-0.2-0.3-0.5-0.5-0.8-0.7c-0.3-0.2-0.7-0.3-1.1-0.3c-0.5,0-1,0.2-1.3,0.5c-0.3,0.3-0.5,0.7-0.5,1.1c0,0.4,0.1,0.8,0.4,1
	c0.3,0.3,0.8,0.5,1.4,0.7c0.4,0.1,0.7,0.2,1.1,0.4c0.4,0.1,0.7,0.2,1,0.4c0.7,0.3,1.3,0.7,1.6,1.1c0.4,0.5,0.6,1.1,0.6,1.8
	c0,0.5-0.1,0.9-0.3,1.3c-0.2,0.4-0.5,0.8-0.9,1.1c-0.4,0.3-0.9,0.6-1.4,0.7C138.7,57.3,138.1,57.3,137.4,57.3z"/>
<path class="st2" d="M150,57.3c-0.6,0-1.2-0.1-1.8-0.2c-0.6-0.2-1-0.3-1.4-0.6l-0.5,0.5h-0.6l-0.1-3.8h0.6c0.1,0.4,0.3,0.7,0.5,1.1
	c0.2,0.4,0.5,0.8,0.8,1.1c0.3,0.3,0.6,0.6,1,0.8c0.4,0.2,0.8,0.3,1.3,0.3c0.7,0,1.2-0.2,1.5-0.5c0.4-0.3,0.5-0.7,0.5-1.2
	c0-0.4-0.2-0.8-0.5-1c-0.3-0.3-0.8-0.5-1.4-0.7c-0.4-0.1-0.8-0.3-1.1-0.4c-0.3-0.1-0.7-0.2-1-0.3c-0.7-0.3-1.2-0.7-1.6-1.2
	c-0.3-0.5-0.5-1.1-0.5-1.8c0-0.4,0.1-0.8,0.3-1.2c0.2-0.4,0.4-0.7,0.8-1c0.3-0.3,0.7-0.5,1.3-0.7c0.5-0.2,1.1-0.3,1.7-0.3
	c0.6,0,1.1,0.1,1.6,0.2c0.5,0.2,0.9,0.3,1.2,0.5l0.5-0.4h0.6l0.1,3.6h-0.6c-0.1-0.4-0.3-0.8-0.5-1.2c-0.2-0.4-0.4-0.7-0.6-1
	c-0.2-0.3-0.5-0.5-0.8-0.7c-0.3-0.2-0.7-0.3-1.1-0.3c-0.5,0-1,0.2-1.3,0.5c-0.3,0.3-0.5,0.7-0.5,1.1c0,0.4,0.1,0.8,0.4,1
	c0.3,0.3,0.8,0.5,1.4,0.7c0.4,0.1,0.7,0.2,1.1,0.4c0.4,0.1,0.7,0.2,1,0.4c0.7,0.3,1.3,0.7,1.6,1.1c0.4,0.5,0.6,1.1,0.6,1.8
	c0,0.5-0.1,0.9-0.3,1.3c-0.2,0.4-0.5,0.8-0.9,1.1c-0.4,0.3-0.9,0.6-1.4,0.7C151.3,57.3,150.7,57.3,150,57.3z"/>
<path class="st2" d="M168.9,57.3c-0.6,0-1.2-0.1-1.8-0.2c-0.6-0.2-1-0.3-1.4-0.6l-0.5,0.5h-0.6l-0.1-3.8h0.6
	c0.1,0.4,0.3,0.7,0.5,1.1c0.2,0.4,0.5,0.8,0.8,1.1c0.3,0.3,0.6,0.6,1,0.8c0.4,0.2,0.8,0.3,1.3,0.3c0.7,0,1.2-0.2,1.5-0.5
	c0.4-0.3,0.5-0.7,0.5-1.2c0-0.4-0.2-0.8-0.5-1c-0.3-0.3-0.8-0.5-1.4-0.7c-0.4-0.1-0.8-0.3-1.1-0.4c-0.3-0.1-0.7-0.2-1-0.3
	c-0.7-0.3-1.2-0.7-1.6-1.2c-0.3-0.5-0.5-1.1-0.5-1.8c0-0.4,0.1-0.8,0.3-1.2c0.2-0.4,0.4-0.7,0.8-1c0.3-0.3,0.7-0.5,1.3-0.7
	c0.5-0.2,1.1-0.3,1.7-0.3c0.6,0,1.1,0.1,1.6,0.2c0.5,0.2,0.9,0.3,1.2,0.5l0.5-0.4h0.6l0.1,3.6h-0.6c-0.1-0.4-0.3-0.8-0.5-1.2
	c-0.2-0.4-0.4-0.7-0.6-1c-0.2-0.3-0.5-0.5-0.8-0.7c-0.3-0.2-0.7-0.3-1.1-0.3c-0.5,0-1,0.2-1.3,0.5c-0.3,0.3-0.5,0.7-0.5,1.1
	c0,0.4,0.1,0.8,0.4,1c0.3,0.3,0.8,0.5,1.4,0.7c0.4,0.1,0.7,0.2,1.1,0.4c0.4,0.1,0.7,0.2,1,0.4c0.7,0.3,1.3,0.7,1.6,1.1
	c0.4,0.5,0.6,1.1,0.6,1.8c0,0.5-0.1,0.9-0.3,1.3c-0.2,0.4-0.5,0.8-0.9,1.1c-0.4,0.3-0.9,0.6-1.4,0.7
	C170.2,57.3,169.6,57.3,168.9,57.3z"/>
<path class="st2" d="M182.6,57.3c-0.8,0-1.5-0.1-2.2-0.4c-0.7-0.2-1.3-0.6-1.8-1.1c-0.5-0.5-0.9-1-1.2-1.7c-0.3-0.7-0.4-1.4-0.4-2.3
	c0-0.8,0.1-1.6,0.4-2.3c0.3-0.7,0.7-1.3,1.2-1.8c0.5-0.5,1.1-0.9,1.8-1.2c0.7-0.3,1.5-0.4,2.3-0.4c0.6,0,1.1,0.1,1.6,0.2
	c0.5,0.1,0.9,0.3,1.2,0.5l0.5-0.4h0.6l0.1,3.8h-0.7c-0.4-1.2-0.8-2-1.3-2.6c-0.5-0.6-1.1-0.8-1.9-0.8c-0.9,0-1.6,0.4-2.1,1.2
	c-0.5,0.8-0.7,2-0.7,3.4c0,0.8,0.1,1.6,0.2,2.1c0.2,0.6,0.4,1.1,0.6,1.4c0.3,0.4,0.6,0.7,1,0.8c0.4,0.2,0.8,0.3,1.3,0.3
	c0.7,0,1.3-0.2,1.8-0.6c0.5-0.4,1-0.9,1.5-1.7l0.6,0.4c-0.2,0.4-0.5,0.8-0.7,1.2c-0.3,0.3-0.6,0.6-0.9,0.9c-0.4,0.3-0.8,0.5-1.3,0.6
	C183.8,57.3,183.3,57.3,182.6,57.3z"/>
<path class="st2" d="M203.6,57h-5.7v-0.6c0.1,0,0.3,0,0.5,0c0.2,0,0.4,0,0.5-0.1c0.2-0.1,0.3-0.2,0.4-0.3c0.1-0.1,0.1-0.3,0.1-0.5
	V52h-4.5v3.5c0,0.2,0,0.3,0.1,0.5c0.1,0.1,0.2,0.2,0.4,0.3c0.1,0,0.3,0.1,0.5,0.1c0.2,0,0.4,0.1,0.6,0.1V57h-5.7v-0.6
	c0.1,0,0.3,0,0.5,0c0.2,0,0.4-0.1,0.5-0.1c0.2-0.1,0.3-0.2,0.4-0.3c0.1-0.1,0.1-0.3,0.1-0.5v-7.4c0-0.2,0-0.3-0.1-0.4
	c-0.1-0.1-0.2-0.2-0.4-0.3c-0.1-0.1-0.3-0.1-0.6-0.2c-0.2-0.1-0.4-0.1-0.5-0.1v-0.6h5.7v0.6c-0.2,0-0.3,0-0.6,0.1
	c-0.2,0-0.4,0.1-0.5,0.1c-0.2,0.1-0.3,0.2-0.4,0.3c-0.1,0.1-0.1,0.3-0.1,0.4v3.1h4.5v-3.1c0-0.2,0-0.3-0.1-0.4
	c-0.1-0.1-0.2-0.2-0.4-0.3c-0.1-0.1-0.3-0.1-0.5-0.2c-0.2-0.1-0.4-0.1-0.5-0.1v-0.6h5.7v0.6c-0.2,0-0.3,0-0.5,0.1
	c-0.2,0-0.4,0.1-0.5,0.1c-0.2,0.1-0.3,0.2-0.4,0.3c-0.1,0.1-0.1,0.3-0.1,0.5v7.4c0,0.2,0,0.3,0.1,0.5c0.1,0.1,0.2,0.2,0.4,0.3
	c0.1,0,0.3,0.1,0.5,0.1c0.2,0,0.4,0.1,0.6,0.1V57z"/>
<path class="st2" d="M215.1,55.2c0.2-0.5,0.4-1,0.5-1.5c0.1-0.6,0.1-1.2,0.1-1.9c0-0.6,0-1.2-0.1-1.8c-0.1-0.6-0.2-1.1-0.4-1.5
	c-0.2-0.5-0.5-0.8-0.8-1.1c-0.4-0.3-0.8-0.4-1.3-0.4c-0.9,0-1.6,0.4-2,1.3c-0.5,0.8-0.7,2-0.7,3.6c0,0.7,0.1,1.3,0.2,1.9
	c0.1,0.6,0.3,1.1,0.5,1.5c0.2,0.4,0.5,0.8,0.8,1c0.3,0.2,0.8,0.4,1.3,0.4c0.5,0,0.9-0.1,1.3-0.4C214.7,56,214.9,55.7,215.1,55.2z
	 M217,47.7c0.5,0.5,0.9,1,1.2,1.7c0.3,0.7,0.5,1.4,0.5,2.3c0,0.8-0.1,1.5-0.4,2.2c-0.3,0.7-0.6,1.3-1.1,1.8
	c-0.5,0.5-1.1,0.9-1.8,1.2c-0.7,0.3-1.5,0.4-2.5,0.4c-0.8,0-1.5-0.1-2.2-0.4c-0.7-0.3-1.3-0.6-1.8-1.1c-0.5-0.5-0.9-1-1.2-1.7
	c-0.3-0.7-0.5-1.4-0.5-2.2c0-0.9,0.1-1.6,0.4-2.3c0.3-0.7,0.7-1.3,1.2-1.8c0.5-0.5,1.1-0.9,1.8-1.1c0.7-0.3,1.4-0.4,2.2-0.4
	c0.8,0,1.5,0.1,2.2,0.4C215.9,46.9,216.5,47.3,217,47.7z"/>
<path class="st2" d="M230.3,55.2c0.2-0.5,0.4-1,0.5-1.5c0.1-0.6,0.1-1.2,0.1-1.9c0-0.6,0-1.2-0.1-1.8c-0.1-0.6-0.2-1.1-0.4-1.5
	c-0.2-0.5-0.5-0.8-0.8-1.1c-0.4-0.3-0.8-0.4-1.3-0.4c-0.9,0-1.6,0.4-2,1.3c-0.5,0.8-0.7,2-0.7,3.6c0,0.7,0.1,1.3,0.2,1.9
	c0.1,0.6,0.3,1.1,0.5,1.5c0.2,0.4,0.5,0.8,0.8,1c0.3,0.2,0.8,0.4,1.3,0.4c0.5,0,0.9-0.1,1.3-0.4C229.9,56,230.1,55.7,230.3,55.2z
	 M232.2,47.7c0.5,0.5,0.9,1,1.2,1.7c0.3,0.7,0.5,1.4,0.5,2.3c0,0.8-0.1,1.5-0.4,2.2c-0.3,0.7-0.6,1.3-1.1,1.8
	c-0.5,0.5-1.1,0.9-1.8,1.2c-0.7,0.3-1.5,0.4-2.5,0.4c-0.8,0-1.5-0.1-2.2-0.4c-0.7-0.3-1.3-0.6-1.8-1.1c-0.5-0.5-0.9-1-1.2-1.7
	c-0.3-0.7-0.5-1.4-0.5-2.2c0-0.9,0.1-1.6,0.4-2.3c0.3-0.7,0.7-1.3,1.2-1.8c0.5-0.5,1.1-0.9,1.8-1.1c0.7-0.3,1.4-0.4,2.2-0.4
	c0.8,0,1.5,0.1,2.2,0.4C231.1,46.9,231.7,47.3,232.2,47.7z"/>
<path class="st2" d="M247.6,53.7l-0.2,3.4h-9.7v-0.6c0.2,0,0.4,0,0.6-0.1c0.2,0,0.4-0.1,0.5-0.1c0.2-0.1,0.3-0.2,0.4-0.3
	c0.1-0.1,0.1-0.3,0.1-0.5v-7.4c0-0.2,0-0.3-0.1-0.4c-0.1-0.1-0.2-0.2-0.4-0.3c-0.2-0.1-0.3-0.1-0.6-0.2c-0.2,0-0.4-0.1-0.5-0.1v-0.6
	h5.8v0.6c-0.2,0-0.3,0-0.6,0.1c-0.2,0-0.4,0.1-0.6,0.1c-0.2,0.1-0.3,0.2-0.4,0.3c-0.1,0.1-0.1,0.3-0.1,0.5V55c0,0.3,0,0.6,0.1,0.8
	c0,0.2,0.1,0.3,0.3,0.4c0.1,0.1,0.3,0.2,0.5,0.2c0.2,0,0.5,0,1,0c0.4,0,0.8,0,1.2-0.1c0.4,0,0.6-0.1,0.8-0.3
	c0.3-0.3,0.5-0.6,0.8-1.1c0.3-0.5,0.5-0.9,0.6-1.3H247.6z"/>
</svg>
